<svg width="1280" height="800" viewBox="0 0 1280 800" fill="none" xmlns="http://www.w3.org/2000/svg">
  <rect width="1280" height="800" fill="#F9FAFB"/>
  <rect x="38" y="38" width="1204" height="724" rx="24" fill="#FFFFFF" stroke="#E5E7EB"/>
  <rect x="64" y="64" width="248" height="672" rx="16" fill="#ECFDF5"/>
  <rect x="96" y="110" width="184" height="42" rx="10" fill="#10B981"/>
  <rect x="96" y="174" width="184" height="16" rx="8" fill="#6B7280" opacity="0.45"/>
  <rect x="96" y="206" width="148" height="16" rx="8" fill="#6B7280" opacity="0.45"/>
  <rect x="96" y="238" width="166" height="16" rx="8" fill="#6B7280" opacity="0.45"/>
  <rect x="336" y="64" width="880" height="84" rx="14" fill="#FFFFFF" stroke="#E5E7EB"/>
  <rect x="364" y="92" width="280" height="26" rx="8" fill="#111827"/>
  <rect x="1084" y="88" width="104" height="36" rx="10" fill="#F59E0B"/>
  <rect x="336" y="172" width="276" height="146" rx="14" fill="#FFFFFF" stroke="#E5E7EB"/>
  <rect x="640" y="172" width="276" height="146" rx="14" fill="#FFFFFF" stroke="#E5E7EB"/>
  <rect x="944" y="172" width="272" height="146" rx="14" fill="#FFFFFF" stroke="#E5E7EB"/>
  <rect x="364" y="204" width="90" height="14" rx="7" fill="#6B7280" opacity="0.45"/>
  <rect x="364" y="228" width="126" height="30" rx="10" fill="#10B981"/>
  <rect x="668" y="204" width="90" height="14" rx="7" fill="#6B7280" opacity="0.45"/>
  <rect x="668" y="228" width="126" height="30" rx="10" fill="#10B981"/>
  <rect x="972" y="204" width="90" height="14" rx="7" fill="#6B7280" opacity="0.45"/>
  <rect x="972" y="228" width="126" height="30" rx="10" fill="#EF4444"/>
  <rect x="336" y="342" width="880" height="368" rx="14" fill="#FFFFFF" stroke="#E5E7EB"/>
  <rect x="364" y="372" width="820" height="48" rx="10" fill="#F3F4F6"/>
  <rect x="390" y="388" width="260" height="16" rx="8" fill="#6B7280" opacity="0.45"/>
  <rect x="364" y="438" width="820" height="1" fill="#E5E7EB"/>
  <rect x="364" y="470" width="820" height="1" fill="#E5E7EB"/>
  <rect x="364" y="502" width="820" height="1" fill="#E5E7EB"/>
  <rect x="364" y="534" width="820" height="1" fill="#E5E7EB"/>
  <rect x="364" y="566" width="820" height="1" fill="#E5E7EB"/>
  <rect x="364" y="598" width="820" height="1" fill="#E5E7EB"/>
  <rect x="364" y="630" width="820" height="1" fill="#E5E7EB"/>
  <rect x="364" y="662" width="820" height="1" fill="#E5E7EB"/>
</svg>
